<?xml version="1.0" standalone="no"?>
<!DOCTYPE svg PUBLIC "-//W3C//DTD SVG 20010904//EN"
 "http://www.w3.org/TR/2001/REC-SVG-20010904/DTD/svg10.dtd">
<svg version="1.0" xmlns="http://www.w3.org/2000/svg"
 width="1024.000000pt" height="1024.000000pt" viewBox="0 0 1024.000000 1024.000000"
 preserveAspectRatio="xMidYMid meet">
<metadata>
Created by potrace 1.14, written by Peter Selinger 2001-2017
</metadata>
<g transform="translate(0.000000,1024.000000) scale(0.100000,-0.100000)"
fill="#000000" stroke="none">
<path d="M5252 8863 c-144 -10 -343 -37 -437 -57 -87 -19 -209 -48 -255 -61
-30 -9 -62 -17 -70 -19 -29 -8 -216 -74 -295 -105 -133 -53 -375 -177 -473
-242 -24 -16 -45 -29 -47 -29 -5 0 -160 -106 -210 -145 -167 -127 -389 -335
-481 -452 -21 -27 -43 -52 -49 -58 -9 -9 -82 -105 -152 -200 -12 -16 -32 -48
-44 -70 -12 -22 -32 -54 -45 -71 -13 -17 -24 -35 -24 -41 0 -6 -8 -21 -18 -34
-22 -28 -60 -100 -97 -184 -14 -33 -62 -132 -105 -220 -44 -88 -100 -209 -125
-270 -25 -60 -51 -112 -57 -116 -6 -4 -23 -3 -37 3 -43 16 -260 21 -369 9
-123 -15 -119 -14 -246 -46 -101 -26 -134 -36 -191 -60 -16 -7 -52 -21 -78
-30 -27 -10 -51 -25 -54 -33 -4 -10 -8 -10 -13 -2 -5 8 -11 8 -21 -2 -8 -8
-22 -17 -31 -21 -10 -3 -18 -11 -18 -17 0 -6 -4 -8 -10 -5 -13 8 -81 -25 -74
-36 3 -5 -2 -6 -10 -3 -11 4 -16 0 -16 -12 0 -16 -2 -17 -10 -4 -6 10 -10 11
-10 3 0 -7 -7 -13 -15 -13 -8 0 -15 -4 -15 -9 0 -5 -15 -16 -34 -25 -19 -9
-48 -29 -66 -46 -18 -16 -36 -30 -41 -30 -4 0 -29 -20 -54 -44 -25 -24 -45
-41 -45 -38 0 3 -24 -18 -52 -48 -29 -29 -52 -57 -51 -62 2 -4 -3 -8 -10 -8
-8 0 -20 -11 -27 -25 -7 -14 -17 -25 -20 -25 -9 0 -105 -127 -151 -200 -169
-267 -239 -526 -241 -884 -1 -248 30 -441 114 -706 33 -103 122 -279 182 -358
31 -41 56 -81 56 -90 0 -10 -27 -55 -60 -101 -127 -177 -221 -383 -255 -561
-32 -167 -37 -234 -32 -395 8 -260 48 -419 163 -647 105 -209 293 -429 474
-557 279 -196 561 -281 935 -282 264 0 477 33 670 106 111 42 262 124 346 187
192 145 383 402 477 643 55 140 94 334 91 453 -1 29 1 55 3 58 3 2 61 -33 129
-78 105 -70 294 -172 414 -223 122 -52 162 -68 255 -100 346 -120 811 -195
1212 -195 170 0 473 22 627 45 114 17 308 53 335 61 15 5 13 -1 -11 -37 -82
-119 -109 -211 -99 -338 l6 -86 -122 -69 c-198 -112 -618 -364 -716 -431 -27
-19 -40 -21 -70 -14 -84 19 -189 -32 -236 -114 -45 -79 -41 -155 11 -217 88
-106 277 -89 355 31 20 31 52 52 181 118 87 45 264 140 395 213 130 72 269
148 307 168 39 20 79 42 91 49 18 12 29 11 80 -9 89 -34 209 -38 308 -11 92
25 195 88 246 149 19 23 42 42 51 42 9 0 96 41 193 91 143 73 176 87 176 72
-1 -10 -7 -29 -15 -43 -8 -14 -14 -35 -15 -46 0 -16 -12 -26 -47 -39 -27 -10
-151 -71 -278 -135 -126 -65 -306 -156 -400 -204 -163 -82 -203 -103 -380
-203 -74 -42 -82 -44 -116 -34 -50 15 -143 14 -182 -2 -84 -36 -137 -112 -137
-199 0 -65 23 -107 81 -145 36 -24 53 -28 108 -28 93 1 164 44 226 137 6 8 82
48 170 88 88 40 351 167 584 282 l423 209 16 -23 c150 -218 572 -224 802 -11
34 31 72 75 85 98 37 62 65 152 65 206 0 55 -10 46 225 189 66 40 154 94 195
120 41 26 129 81 195 122 285 177 425 265 506 317 48 31 122 78 165 106 44 27
157 100 252 162 l172 112 0 51 c0 48 -1 50 -20 40 -11 -6 -26 -8 -32 -4 -7 4
-8 3 -4 -4 4 -7 -3 -17 -18 -24 -14 -6 -26 -15 -26 -20 0 -5 -10 -7 -22 -4
-13 3 -17 3 -10 0 20 -9 -57 -62 -82 -57 -16 4 -17 2 -7 -5 16 -12 -3 -27 -21
-16 -6 4 -8 3 -5 -3 4 -6 -15 -21 -41 -34 -26 -13 -52 -30 -58 -38 -7 -8 -16
-11 -24 -6 -8 5 -11 4 -7 -2 4 -6 0 -14 -9 -17 -8 -3 -13 -2 -10 3 3 5 -10 1
-29 -7 -19 -9 -35 -20 -35 -24 0 -5 10 -4 23 2 20 10 20 9 -3 -9 -14 -11 -26
-18 -28 -16 -2 2 -23 -11 -47 -28 -85 -63 -129 -92 -174 -117 -26 -14 -61 -35
-79 -48 -17 -13 -32 -20 -32 -15 0 4 -4 3 -8 -3 -12 -19 -145 -105 -151 -98
-3 4 0 9 6 11 7 3 23 13 35 24 21 17 21 18 3 12 -11 -3 -25 -10 -32 -15 -8 -7
-11 -3 -10 11 1 13 6 20 14 17 7 -3 12 -2 12 2 -3 21 4 33 32 53 24 17 33 19
39 9 7 -11 14 -11 37 -1 28 11 29 14 23 57 -6 41 1 57 15 34 3 -6 19 -10 36
-10 28 0 33 -7 30 -40 -1 -10 1 -11 6 -4 4 6 15 14 23 17 12 4 12 6 -1 6 -18
1 -32 25 -22 35 4 3 13 6 22 6 12 0 13 -2 3 -8 -8 -6 -2 -9 19 -9 l31 0 -37
22 c-27 17 -32 24 -21 28 9 4 16 2 16 -3 0 -18 35 -14 57 7 12 13 30 23 41 23
28 0 42 20 42 63 0 38 0 39 38 35 37 -3 37 -3 42 40 4 34 11 45 33 57 29 15
30 14 29 -40 -1 -17 0 -17 4 -2 6 19 44 24 44 5 0 -6 -8 -20 -17 -31 -17 -19
-17 -19 3 -7 12 7 26 21 32 31 10 16 8 20 -20 27 l-33 8 29 29 c27 27 30 28
36 10 6 -18 9 -18 33 9 15 16 32 26 40 23 9 -3 12 4 9 31 -4 31 -2 34 14 28
37 -15 52 -14 59 1 3 9 1 20 -6 23 -8 6 -8 9 0 14 6 4 11 2 11 -3 0 -6 18 -11
40 -11 37 0 40 2 40 28 0 15 5 33 12 40 7 7 8 12 3 12 -6 0 8 11 30 24 28 17
34 25 20 24 -11 0 -32 2 -46 6 -25 7 -46 -6 -48 -29 -1 -5 -9 -10 -19 -11 -37
-2 -41 -4 -36 -19 8 -19 -54 -75 -81 -74 -17 1 -17 2 -2 6 15 4 25 23 12 23
-12 0 -84 -40 -90 -50 -3 -6 -24 -19 -45 -30 -24 -12 -37 -25 -34 -33 6 -16
-42 -67 -65 -68 -65 -5 -82 -9 -103 -29 -12 -12 -35 -28 -50 -36 -46 -24 -101
-64 -89 -64 7 0 9 -5 6 -10 -4 -6 -16 -8 -28 -4 -22 6 -22 6 -2 -10 23 -18 13
-21 -16 -6 -13 7 -19 7 -19 0 0 -5 -7 -10 -15 -10 -8 0 -15 -7 -15 -15 0 -8
-6 -12 -13 -9 -8 3 -29 -9 -46 -26 -18 -16 -39 -30 -47 -30 -8 0 -14 -4 -14
-9 0 -5 -9 -12 -19 -16 -13 -4 -18 -12 -14 -22 5 -12 1 -14 -17 -8 -17 5 -21
4 -15 -5 5 -9 4 -11 -3 -6 -14 9 -52 -15 -52 -32 0 -7 -5 -10 -10 -7 -18 11
-150 -79 -150 -102 0 -7 -5 -13 -11 -13 -5 0 -7 5 -4 10 3 5 1 10 -4 10 -6 0
-11 -3 -11 -8 0 -4 -13 -13 -30 -20 -16 -8 -30 -20 -30 -28 0 -7 -6 -11 -13
-8 -8 3 -20 -2 -27 -11 -7 -8 -16 -15 -21 -15 -5 0 -35 -17 -67 -39 -31 -21
-70 -46 -87 -54 -16 -9 -41 -26 -55 -37 -24 -21 -24 -21 -2 -15 26 8 29 -3 5
-21 -17 -12 -16 -13 4 -14 12 0 24 5 26 10 3 6 4 5 3 -2 -3 -14 -48 -17 -82
-5 -15 5 -27 2 -37 -8 -9 -8 -20 -15 -25 -15 -17 0 -102 -67 -95 -75 5 -4 2
-5 -6 0 -7 4 -16 3 -20 -4 -5 -8 -25 3 -62 33 -30 25 -81 55 -112 67 -31 12
-57 25 -57 28 0 17 701 436 960 574 135 72 160 86 385 215 174 99 221 121 254
122 13 0 21 3 18 6 -3 4 32 26 80 50 67 34 89 41 100 32 22 -18 60 5 68 41 4
17 15 33 26 36 11 4 17 11 14 16 -4 5 2 6 11 2 14 -5 16 -3 11 11 -4 10 -3 15
3 11 6 -3 10 0 10 9 0 8 3 16 8 18 4 1 22 23 40 47 l32 45 0 282 0 282 -66 70
c-109 118 -240 165 -401 142 -263 -36 -483 -276 -483 -527 0 -53 -1 -54 -45
-81 -25 -15 -119 -72 -208 -127 -89 -56 -202 -126 -252 -156 -49 -30 -195
-120 -323 -200 -277 -172 -443 -271 -857 -511 -170 -100 -356 -208 -412 -240
l-102 -60 -28 26 c-15 14 -58 41 -95 59 l-67 34 72 27 c278 105 494 214 718
363 119 79 167 113 220 158 19 16 48 40 64 52 77 60 302 275 385 368 356 400
623 1025 695 1629 4 28 8 52 10 56 11 18 35 319 37 465 3 152 -8 429 -16 444
-2 3 -7 35 -10 71 -4 36 -11 83 -16 105 -5 22 -12 56 -15 75 -23 134 -84 350
-147 520 -49 131 -180 419 -196 430 -5 3 -11 12 -15 20 -9 21 -46 79 -84 133
-18 25 -33 48 -33 51 0 3 30 25 68 49 129 84 180 210 153 382 -11 76 -88 407
-127 549 -69 249 -220 441 -387 491 -179 53 -399 -34 -597 -237 -47 -49 -89
-88 -93 -88 -4 0 -30 16 -57 35 -27 19 -53 35 -56 35 -3 0 -18 8 -32 19 -96
67 -334 180 -521 247 -212 76 -522 160 -657 179 -22 3 -59 10 -84 15 -54 11
-112 18 -200 25 -36 2 -121 9 -190 15 -151 13 -306 11 -538 -7z m298 -129
c319 -74 718 -227 965 -371 77 -46 202 -128 275 -182 91 -67 290 -248 290
-263 0 -5 -21 3 -47 16 -115 59 -240 92 -396 103 l-89 6 -86 65 c-132 98 -294
202 -427 274 -203 109 -575 246 -842 309 -79 19 -143 37 -143 41 0 12 40 19
156 28 138 10 212 4 344 -26z m415 11 c306 -54 690 -202 975 -375 156 -96 440
-325 440 -357 0 -6 -14 -13 -32 -17 -18 -3 -63 -20 -100 -38 l-69 -31 -63 64
c-35 36 -87 85 -116 109 -30 25 -70 59 -89 75 -85 72 -200 150 -350 237 -211
122 -493 233 -871 342 l-55 16 120 -5 c66 -2 161 -12 210 -20z m-895 -81 c245
-59 270 -66 270 -73 0 -4 -17 -13 -37 -20 -514 -177 -958 -425 -1409 -787
-232 -186 -292 -240 -526 -471 -194 -191 -279 -282 -388 -418 -35 -44 -72 -88
-81 -97 -10 -10 -24 -27 -33 -39 l-15 -22 -84 57 c-46 31 -101 73 -122 94 -32
32 -36 41 -31 72 3 19 35 94 70 165 167 334 400 631 696 886 379 327 877 579
1343 679 112 24 155 21 347 -26z m1548 -40 c100 -29 345 -111 411 -139 152
-63 460 -231 469 -256 2 -5 10 -9 18 -9 8 0 14 -2 14 -4 0 -2 -19 -40 -43 -84
l-43 -80 -64 65 c-166 166 -516 392 -745 481 -33 13 -69 27 -80 32 -34 15 4
11 63 -6z m1677 -109 c162 -78 271 -281 334 -620 12 -60 28 -141 36 -179 45
-204 43 -287 -8 -363 -40 -58 -129 -105 -234 -123 -86 -15 -262 -8 -273 11 -4
6 -13 8 -19 4 -7 -4 -20 -4 -29 0 -9 4 -28 9 -40 11 -36 4 -151 43 -193 64
-29 15 -36 24 -32 40 3 11 10 20 16 20 16 0 47 31 47 47 0 23 -19 14 -26 -12
-3 -14 -10 -25 -15 -25 -15 0 -10 27 8 45 11 12 14 22 7 32 -5 8 -7 44 -4 79
3 36 3 68 -1 72 -3 4 -19 41 -35 82 -36 95 -61 136 -112 182 -54 49 -81 66
-147 93 l-55 22 31 59 c131 246 333 431 524 480 67 18 158 9 220 -21z m-2785
1 c72 -12 100 -19 100 -27 0 -5 10 -8 23 -7 26 2 87 -20 87 -33 0 -9 -47 -6
-57 4 -3 4 -16 7 -27 7 -20 0 -20 -1 2 -18 28 -21 20 -30 -43 -51 -245 -81
-598 -258 -855 -429 -105 -69 -354 -253 -406 -298 -12 -11 -48 -41 -80 -69
-105 -89 -340 -311 -433 -409 -25 -27 -53 -56 -62 -65 -27 -28 -213 -244 -250
-291 -56 -71 -172 -238 -191 -275 l-18 -34 -42 15 c-24 8 -96 40 -160 71 -82
39 -118 62 -122 77 -4 14 -8 17 -14 9 -4 -7 -13 -9 -21 -4 -11 7 -11 12 1 30
8 11 18 18 21 14 4 -3 7 2 7 12 0 17 1 17 22 -1 l21 -19 -17 27 c-17 26 -16
28 8 67 89 140 507 565 766 777 19 16 44 37 55 48 19 17 91 74 154 121 15 11
47 36 72 56 68 56 284 206 384 267 305 185 546 302 825 398 125 44 146 46 250
30z m423 -152 c108 -53 266 -148 264 -158 -3 -10 -18 -16 -227 -90 -329 -116
-563 -227 -820 -388 -242 -152 -490 -350 -669 -536 -189 -198 -212 -224 -357
-412 -95 -123 -239 -348 -263 -413 l-10 -25 -113 29 c-97 25 -357 106 -366
114 -12 11 154 276 213 341 5 6 35 42 65 80 124 155 500 533 626 631 16 13 43
35 61 50 17 16 46 39 64 53 121 94 157 121 184 143 17 13 73 52 125 87 52 34
114 76 138 91 23 16 45 29 47 29 3 0 39 20 79 45 41 25 77 45 79 45 3 0 34 16
69 36 79 45 267 131 378 173 47 18 92 36 101 41 8 4 60 20 114 34 55 15 101
29 104 31 11 12 47 2 114 -31z m337 -244 c0 -12 55 -41 63 -33 3 3 13 -2 22
-11 15 -15 34 -20 62 -17 6 1 14 -2 17 -7 3 -5 -43 -24 -102 -42 -208 -65
-296 -120 -380 -237 -39 -53 -58 -69 -112 -95 -98 -47 -276 -157 -451 -280
-198 -139 -386 -313 -619 -574 -100 -111 -342 -478 -365 -552 -6 -22 -10 -23
-68 -18 -76 7 -223 33 -297 53 -30 8 -62 15 -70 15 -8 0 -20 5 -27 10 -27 21
106 252 261 453 107 138 212 257 367 414 102 103 323 283 490 398 257 177 622
357 951 468 145 49 195 60 213 45 12 -10 16 -9 21 4 7 17 24 22 24 6z m449
-186 c113 -17 266 -68 338 -113 42 -26 43 -27 43 -82 0 -49 4 -61 41 -110 60
-80 84 -125 114 -214 28 -81 42 -219 25 -230 -5 -3 -8 -11 -6 -18 1 -7 1 -9
-1 -4 -10 17 -22 5 -20 -19 1 -15 -4 -29 -11 -31 -8 -3 -10 2 -6 14 5 14 4 15
-4 4 -11 -16 -5 -41 10 -41 5 0 6 -5 2 -12 -5 -8 -11 -6 -19 6 -11 15 -13 15
-19 1 -3 -9 -2 -13 4 -10 6 3 10 -1 10 -9 0 -9 -6 -16 -12 -16 -10 0 -10 -2 0
-8 17 -12 -43 -88 -66 -84 -13 2 -14 1 -4 -6 11 -7 7 -17 -19 -43 -18 -19 -37
-33 -42 -31 -5 1 -6 -2 -3 -7 3 -5 -4 -16 -17 -24 -12 -8 -32 -24 -44 -36 -34
-32 -115 -81 -124 -75 -5 3 -9 1 -9 -5 0 -13 -137 -64 -150 -56 -5 3 -10 2
-10 -3 0 -10 -102 -28 -130 -24 -8 1 -27 4 -42 7 -41 6 -90 34 -82 47 5 7 2 8
-6 3 -16 -10 -83 64 -75 82 2 7 -1 12 -8 10 -7 -1 -11 8 -10 23 1 14 -1 19 -3
12 -3 -6 -10 -10 -15 -7 -5 4 -1 18 8 33 17 27 17 27 -4 9 -24 -21 -34 -8 -26
36 4 17 1 27 -7 27 -7 0 -10 -7 -6 -17 5 -15 3 -15 -9 1 -8 11 -12 28 -9 39 8
24 -24 90 -41 84 -7 -3 -26 16 -46 46 -18 29 -36 54 -41 57 -4 3 -5 18 -2 34
3 18 1 25 -6 21 -6 -4 -9 -13 -6 -21 3 -8 4 -14 2 -14 -5 0 -116 167 -116 175
0 3 -14 35 -31 71 -29 59 -31 71 -27 146 4 100 21 139 96 220 84 90 216 146
394 167 110 13 132 12 247 -5z m862 -54 c76 -38 131 -106 159 -196 33 -104 34
-218 2 -285 -56 -118 -179 -184 -309 -164 -38 6 -44 9 -28 16 19 7 19 8 -1 8
-33 1 -42 20 -46 93 -2 36 -7 64 -11 61 -5 -3 -7 3 -6 13 2 11 -5 34 -15 52
-9 18 -15 39 -12 45 2 7 5 4 5 -5 1 -10 6 -18 11 -18 13 0 13 3 -4 35 -9 17
-16 22 -19 13 -3 -9 -7 -8 -12 5 -4 11 -21 33 -37 50 -44 47 -88 113 -88 132
0 43 64 116 132 151 71 37 200 34 279 -6z m-1678 -506 c21 -57 49 -110 91
-173 l35 -55 -23 -15 c-209 -139 -312 -220 -457 -359 -64 -61 -148 -149 -187
-194 -93 -111 -218 -290 -248 -357 l-24 -53 -112 6 c-143 9 -479 46 -496 55
-17 9 72 189 154 311 181 271 474 577 744 776 181 133 328 227 443 285 l52 26
6 -106 c3 -58 13 -124 22 -147z m2168 -255 c63 -31 239 -168 260 -202 26 -42
21 -113 -11 -137 -34 -26 -110 -44 -184 -44 -61 0 -71 -3 -96 -27 -37 -38
-107 -48 -150 -23 -18 11 -61 61 -97 113 -36 51 -74 101 -84 110 -11 8 -19 24
-19 34 0 10 -4 16 -9 13 -4 -3 -24 27 -44 67 -20 40 -32 73 -28 75 5 1 31 -11
58 -28 83 -52 173 -54 173 -4 0 13 -8 36 -17 51 l-17 26 81 -7 c54 -5 83 -4
88 3 8 13 46 5 96 -20z m471 -110 c230 -348 404 -856 449 -1313 10 -109 15
-548 6 -563 -3 -4 -8 -44 -11 -88 -15 -170 -22 -195 -68 -243 -101 -105 -204
-202 -214 -202 -8 0 -11 64 -10 228 0 125 -2 259 -7 297 -44 402 -49 435 -124
745 -51 214 -158 528 -248 724 -14 30 -25 59 -25 65 0 5 26 15 58 21 81 17
148 48 177 81 13 16 29 54 35 85 17 82 6 103 -119 207 -73 62 -73 62 -45 68
62 11 66 8 146 -112z m-2404 -89 c82 -143 252 -367 267 -352 4 4 5 3 4 -3 -6
-18 33 -66 48 -61 8 3 21 0 28 -8 12 -12 12 -15 -1 -20 -8 -3 -12 -2 -9 4 3 6
1 10 -4 10 -6 0 -11 -2 -11 -5 0 -11 24 -55 30 -55 4 0 10 -10 13 -22 4 -12 9
-19 13 -15 4 4 -2 20 -14 37 -15 20 -18 31 -11 36 7 4 16 -1 21 -10 13 -24 31
-21 18 3 -8 16 -6 21 13 27 21 8 21 8 -8 15 l-30 7 34 1 c25 1 32 -3 28 -13
-3 -8 1 -22 8 -33 11 -14 14 -15 15 -3 0 22 28 -21 32 -51 2 -13 9 -33 16 -44
12 -19 13 -18 7 5 -7 24 -6 24 7 5 19 -25 48 -85 48 -97 0 -5 -6 -8 -12 -7 -7
2 -38 -1 -68 -6 -30 -5 -59 -9 -65 -10 -11 -1 -68 -10 -150 -25 -60 -11 -223
-28 -318 -34 l-69 -4 -46 75 c-62 99 -228 328 -298 411 l-56 66 53 48 c29 26
56 48 59 48 8 0 66 -63 131 -141 30 -36 70 -85 90 -110 20 -24 54 -67 75 -95
51 -67 114 -137 120 -132 13 14 -111 193 -268 386 -54 66 -98 125 -98 131 0
11 116 100 195 150 l50 32 43 -48 c24 -26 56 -68 70 -93z m1337 50 c9 -50 17
-117 17 -148 1 -54 -26 -171 -41 -182 -4 -3 -15 -26 -24 -51 -20 -54 -109
-147 -147 -155 -14 -3 -46 -14 -72 -25 -62 -25 -114 -18 -150 21 -53 57 -60
158 -18 245 19 39 135 143 153 137 5 -1 6 2 2 7 -3 6 2 19 11 29 15 18 20 19
49 6 70 -29 145 27 160 119 6 37 29 87 39 87 2 0 11 -41 21 -90z m135 -130 c6
-11 8 -26 4 -32 -5 -8 -10 -5 -15 8 -16 41 -8 59 11 24z m-4973 -53 c43 -34
114 -84 158 -111 157 -96 158 -96 144 -112 -13 -16 -13 -16 19 -19 12 -1 22 2
22 8 0 13 15 8 165 -58 72 -32 194 -79 273 -105 80 -27 149 -56 156 -66 8 -11
20 -15 30 -11 10 4 97 -13 194 -37 97 -25 224 -54 282 -65 113 -22 473 -75
580 -86 36 -4 76 -8 90 -11 146 -22 858 -32 1125 -15 77 5 143 7 147 5 7 -5
394 39 543 62 55 8 123 18 150 21 l51 5 19 -55 c14 -43 24 -56 42 -60 13 -2
25 -1 27 2 3 4 -4 31 -14 61 -16 47 -17 57 -5 69 11 12 21 12 59 1 66 -18 119
-8 220 45 49 25 93 42 96 38 4 -4 22 -48 40 -98 31 -85 73 -145 101 -145 15 0
9 21 -39 158 l-40 112 32 -20 c53 -36 132 -70 188 -82 45 -9 59 -9 89 6 44 21
69 70 69 134 0 52 12 72 45 72 17 0 27 -16 54 -92 19 -51 37 -97 41 -103 7 -9
19 -50 26 -86 2 -8 20 -58 40 -110 20 -52 37 -100 37 -107 0 -7 6 -11 12 -8 8
2 11 -8 10 -31 0 -20 5 -42 13 -49 7 -8 10 -19 7 -24 -9 -14 3 -62 13 -56 4 2
8 -3 8 -12 3 -50 17 -162 24 -192 32 -127 76 -403 93 -590 15 -160 21 -578 9
-680 l-7 -65 -50 -27 c-68 -37 -184 -82 -191 -75 -3 3 -7 45 -9 94 -13 283
-99 764 -160 885 -8 17 -12 34 -9 39 3 5 3 9 0 9 -6 0 -36 -55 -36 -65 0 -3 5
-3 10 0 7 4 10 -6 9 -27 0 -18 6 -69 15 -113 85 -440 97 -530 99 -717 l2 -142
-95 -37 c-154 -60 -280 -95 -289 -80 -5 7 -11 65 -14 129 -7 117 -8 133 -27
272 -13 95 -39 240 -47 260 -3 8 -7 22 -9 31 -7 36 -24 70 -33 65 -4 -3 -7 13
-6 37 2 23 -5 78 -15 122 -10 44 -21 98 -25 119 -5 29 -9 36 -16 25 -6 -10 -8
-5 -8 16 1 41 -4 69 -14 76 -5 4 -9 23 -9 43 0 20 -4 33 -10 30 -5 -3 -8 5 -6
18 4 33 -23 108 -39 108 -7 0 -13 -4 -13 -10 0 -5 5 -10 11 -10 6 0 8 -9 4
-20 -5 -14 -2 -20 9 -20 9 0 16 -4 16 -10 0 -5 -5 -10 -11 -10 -8 0 -8 -4 -1
-12 12 -15 28 -104 24 -136 -2 -14 2 -21 10 -20 7 2 14 -8 15 -22 2 -14 8 -43
14 -65 5 -22 11 -48 13 -57 1 -10 5 -21 9 -24 4 -4 7 -29 7 -56 0 -33 4 -47
11 -42 8 4 8 0 0 -15 -9 -15 -9 -21 -1 -21 7 0 9 -10 6 -27 -7 -33 1 -49 29
-56 18 -4 18 -5 -2 -6 -21 -1 -34 -21 -14 -21 5 0 9 -17 8 -37 0 -21 3 -63 6
-93 4 -30 14 -107 22 -170 22 -172 30 -267 30 -350 0 -88 5 -83 -145 -124
-237 -65 -527 -128 -535 -116 -2 3 -13 71 -25 151 -11 79 -36 207 -55 285 -19
77 -35 150 -35 162 0 11 -4 23 -9 26 -5 3 -7 15 -4 26 3 12 0 20 -6 20 -7 0
-11 6 -10 13 1 6 1 23 0 37 -2 23 -3 23 -10 5 -10 -27 -1 -155 11 -155 5 0 9
-17 8 -37 -1 -21 -1 -40 0 -43 0 -3 3 -28 5 -57 1 -28 5 -55 8 -60 9 -14 47
-298 47 -348 0 -50 7 -46 -110 -64 -518 -82 -1024 -98 -1580 -51 -188 16 -597
75 -759 110 -398 85 -887 240 -905 287 -3 8 -9 53 -13 100 -3 46 -12 90 -18
97 -10 10 -10 16 1 31 7 10 10 23 6 29 -11 18 -10 140 2 148 8 5 7 13 -1 27
-9 14 -9 22 -2 27 8 4 8 9 0 17 -6 6 -11 31 -11 56 0 65 -8 46 -15 -37 -4 -47
-2 -72 5 -72 5 0 10 -5 10 -11 0 -5 -4 -8 -9 -4 -5 3 -13 0 -17 -6 -4 -8 -3
-9 4 -5 7 4 12 1 12 -8 0 -8 -5 -18 -11 -22 -8 -5 -10 -55 -7 -165 2 -87 1
-164 -4 -171 -17 -27 -468 224 -500 278 -9 16 -19 63 -23 104 -3 41 -8 82 -11
91 -16 55 -33 299 -21 299 4 0 5 5 2 11 -10 14 -12 189 -4 189 15 0 4 40 -11
40 -12 1 -12 3 3 14 19 15 22 33 6 38 -7 2 -9 13 -4 27 6 18 9 21 16 10 7 -11
9 -11 9 2 0 9 -6 19 -14 22 -8 3 -16 16 -19 29 -2 13 -5 -8 -7 -47 -3 -94 -6
-117 -14 -136 -4 -10 -3 -20 3 -23 7 -5 7 -13 -2 -27 -10 -16 -9 -21 3 -29 8
-5 10 -10 4 -10 -18 0 -8 -476 11 -537 13 -39 -51 11 -182 143 -45 46 -88 96
-96 111 -17 31 -50 200 -69 343 -8 58 -12 205 -12 375 0 257 3 292 27 427 46
259 100 454 180 658 68 173 148 340 163 340 2 0 38 -28 81 -63z m2985 -112
c69 -79 318 -447 318 -470 0 -7 -12 -16 -27 -20 -39 -11 -721 -16 -728 -5 -9
15 64 143 141 245 62 83 247 285 261 285 2 0 18 -16 35 -35z m2618 -70 c0 -7
4 -15 9 -17 18 -7 186 -477 228 -638 47 -184 54 -216 84 -375 32 -175 54 -342
64 -477 8 -119 8 -508 0 -541 -8 -29 -74 -80 -215 -164 -72 -43 -243 -133
-253 -133 -1 0 -3 125 -3 278 1 260 -13 479 -35 597 -6 28 -12 70 -15 95 -11
92 -46 279 -76 400 -57 232 -164 593 -198 665 -24 51 -57 151 -53 163 8 21 38
13 55 -15 28 -47 100 -113 132 -122 44 -11 81 5 122 53 33 38 83 131 118 219
15 36 36 43 36 12z m-1424 -227 c2 -69 0 -78 -16 -78 -23 0 -98 138 -78 145
28 9 54 13 73 12 18 -2 20 -10 21 -79z m-4575 53 c18 28 9 -25 -18 -113 -15
-49 -35 -98 -46 -109 -13 -14 -16 -24 -9 -31 10 -10 8 -18 -23 -152 -14 -61
-45 -120 -63 -121 -4 -1 -17 -4 -29 -9 -25 -8 -30 -22 -10 -29 17 -5 47 3 47
14 0 5 5 9 11 9 8 0 10 -15 5 -49 -3 -27 -9 -84 -12 -127 -3 -44 -9 -106 -13
-139 -11 -76 1 -354 25 -583 l6 -53 -54 33 c-29 17 -60 39 -68 48 -16 16 -108
80 -115 80 -9 0 -180 115 -183 123 -2 4 -8 7 -13 7 -5 0 -39 18 -74 41 -65 41
-65 42 -60 78 16 94 29 140 38 134 6 -4 8 2 5 15 -4 12 -2 22 4 22 5 0 6 9 3
20 -4 11 -2 20 4 20 6 0 11 5 11 12 0 20 32 48 56 48 28 0 209 -47 249 -64 64
-28 95 -35 95 -21 0 20 -40 45 -71 45 -15 0 -32 7 -39 15 -7 9 -15 13 -18 10
-3 -2 -13 5 -23 16 -16 19 -17 22 -1 41 56 69 96 113 103 116 5 2 9 8 9 14 0
11 26 39 35 38 16 -3 24 6 16 19 -7 11 -14 9 -34 -12 -13 -15 -28 -23 -32 -19
-5 4 -5 -1 -2 -10 4 -12 1 -18 -8 -18 -8 0 -15 -5 -15 -11 0 -5 -4 -8 -9 -5
-5 4 -11 3 -13 -2 -4 -10 -93 -52 -110 -52 -7 0 -26 -7 -41 -15 -16 -8 -43
-16 -60 -18 -18 -2 -39 -6 -47 -9 -8 -4 -50 -18 -94 -32 -43 -15 -95 -36 -117
-46 -21 -11 -45 -20 -54 -20 -8 0 -15 -4 -15 -10 0 -5 -9 -10 -20 -10 -11 0
-20 -5 -20 -11 0 -6 -7 -8 -15 -5 -9 3 -18 -1 -21 -9 -4 -8 -14 -15 -24 -15
-11 0 -22 -4 -25 -10 -3 -5 -15 -10 -26 -10 -10 0 -19 -5 -19 -11 0 -5 -4 -8
-9 -5 -10 7 -71 -25 -71 -36 0 -5 -6 -8 -14 -8 -16 0 -25 -19 -18 -37 3 -10
11 -8 31 6 14 10 36 17 49 15 17 -3 27 4 40 26 9 17 27 33 40 36 12 4 22 10
22 14 0 5 17 14 38 21 64 20 132 52 132 62 0 4 10 5 23 2 15 -4 18 -3 9 3 -16
11 68 25 93 16 18 -7 19 -14 3 -51 -6 -15 -12 -32 -14 -38 -1 -5 -16 -59 -32
-120 -17 -60 -33 -143 -36 -183 -3 -39 -8 -77 -11 -82 -3 -6 -2 -10 4 -10 7 0
7 -8 1 -25 -5 -14 -7 -31 -5 -38 3 -7 7 -44 8 -82 3 -52 7 -70 18 -70 10 0 13
13 12 50 -5 205 -2 270 15 287 9 9 22 6 52 -8 22 -10 40 -22 40 -26 0 -5 6 -8
13 -8 26 0 84 -59 91 -92 5 -26 9 -30 16 -18 8 14 69 23 68 10 -1 -17 4 -21
16 -11 11 10 16 8 21 -8 3 -12 15 -21 26 -21 10 0 19 -4 19 -10 0 -5 10 -10
23 -10 18 0 19 -2 7 -11 -13 -9 -12 -10 3 -5 12 4 26 -3 41 -19 13 -14 26 -25
30 -25 4 0 27 -18 50 -41 24 -22 52 -46 61 -53 12 -8 29 -66 55 -182 21 -93
50 -216 64 -273 18 -68 24 -107 17 -114 -13 -13 -372 346 -390 391 -7 17 -17
32 -22 32 -4 0 -10 8 -12 18 -2 9 -2 -1 1 -22 2 -22 13 -55 23 -73 11 -19 19
-40 19 -48 0 -9 4 -23 9 -33 4 -9 17 -35 27 -57 10 -22 22 -42 25 -45 6 -5 21
-32 56 -100 10 -19 20 -37 23 -40 3 -3 26 -37 52 -75 48 -75 84 -114 72 -79
-4 10 -13 26 -19 34 -7 8 -15 24 -17 35 -2 11 -10 20 -18 20 -8 0 -14 8 -12
17 1 9 -18 51 -43 93 -25 42 -45 79 -45 82 0 4 -11 21 -26 40 -30 40 -16 45
18 6 54 -63 208 -194 219 -187 7 4 9 3 6 -3 -3 -5 20 -34 51 -64 46 -44 61
-68 79 -119 12 -36 20 -66 18 -68 -6 -7 -149 41 -166 54 -9 9 -19 10 -25 4 -5
-5 -24 -5 -49 0 -22 6 -89 12 -150 16 -152 7 -153 8 -175 57 -11 23 -20 38
-20 32 0 -5 -19 31 -43 80 -52 110 -56 117 -68 110 -8 -6 -14 17 -10 39 1 4
-5 19 -14 32 -8 13 -15 32 -15 44 0 11 -4 20 -9 20 -5 0 -7 10 -3 22 3 13 1
19 -5 15 -6 -4 -15 23 -22 66 -19 111 -35 176 -41 172 -4 -2 -4 9 -2 26 3 22
0 29 -13 29 -15 0 -16 -6 -10 -37 4 -21 8 -46 7 -56 0 -9 3 -15 8 -12 4 3 8
-5 8 -18 -1 -36 52 -240 65 -253 4 -4 7 -16 7 -27 0 -11 5 -17 13 -14 7 3 12
-5 13 -22 2 -57 119 -281 146 -281 5 0 7 -4 4 -8 -3 -5 -51 -12 -106 -15 -56
-3 -142 -14 -191 -23 -89 -16 -90 -16 -108 5 -18 20 -63 120 -97 213 -9 26
-20 45 -25 43 -4 -3 -7 3 -7 12 1 10 -4 37 -11 61 -10 37 -14 42 -27 31 -9 -7
-11 -15 -5 -18 6 -4 13 -27 17 -51 7 -46 44 -154 89 -260 14 -33 25 -63 25
-68 0 -5 -21 -15 -47 -23 -27 -7 -66 -21 -88 -31 -22 -9 -45 -18 -51 -18 -9 0
-32 44 -115 226 -11 22 -19 46 -19 52 0 7 -5 12 -11 12 -5 0 -8 4 -5 8 2 4 -9
48 -25 97 -16 50 -38 135 -49 190 -11 55 -23 111 -26 125 -11 46 -14 420 -4
420 6 0 10 15 10 33 0 19 3 37 8 41 4 4 12 24 18 44 7 26 15 36 27 34 12 -2
15 2 10 14 -5 14 -3 16 11 11 10 -4 15 -3 11 3 -11 17 -27 11 -84 -32 -70 -52
-139 -118 -124 -118 6 0 14 7 17 16 5 13 9 14 21 4 13 -10 19 -10 33 4 27 24
35 20 28 -16 -3 -18 -9 -53 -12 -78 -4 -24 -12 -49 -18 -55 -37 -31 -93 -170
-71 -179 7 -2 19 18 30 50 10 30 23 53 28 51 5 -1 11 -34 13 -72 2 -39 8 -118
14 -176 12 -115 7 -144 -40 -210 -12 -16 -18 -34 -15 -39 4 -6 1 -9 -7 -8 -11
3 -66 -91 -91 -154 -4 -10 -8 -10 -16 2 -10 14 -8 134 5 240 4 25 7 54 8 66 1
11 6 25 10 32 4 7 4 17 1 22 -3 6 -1 10 4 10 6 0 11 21 11 48 0 31 3 42 9 33
7 -10 9 -7 8 12 -2 24 -3 24 -18 8 -21 -22 -33 -60 -30 -89 1 -13 -2 -28 -7
-35 -5 -7 -13 -41 -17 -77 -10 -95 -12 -103 -20 -124 -4 -10 -5 -82 -2 -160 6
-153 44 -329 92 -431 40 -86 40 -84 -12 -137 -26 -26 -51 -48 -55 -48 -10 0
-78 101 -120 180 -134 250 -177 499 -122 705 14 50 27 102 31 118 3 15 10 27
16 27 8 0 8 3 0 11 -12 12 6 56 28 70 10 6 10 13 2 31 -12 23 -12 23 -12 -5
-1 -16 -5 -26 -10 -23 -8 5 -24 -32 -26 -60 0 -6 -8 -21 -16 -35 -9 -13 -29
-64 -45 -112 -16 -48 -32 -87 -35 -87 -3 0 -9 28 -12 63 -7 71 5 181 28 265
29 101 33 122 26 122 -3 0 -1 4 4 8 12 9 55 95 55 111 0 6 4 11 9 11 14 0 24
57 13 76 -7 13 -11 10 -22 -18 -7 -18 -20 -41 -28 -50 -8 -9 -11 -22 -7 -27 3
-6 2 -11 -4 -11 -5 0 -18 -24 -29 -52 -11 -29 -26 -53 -33 -53 -21 0 -12 101
18 220 14 55 25 110 25 123 0 12 4 22 10 22 5 0 6 10 3 21 -5 15 -4 19 4 15 6
-4 11 -3 11 3 0 6 14 41 31 78 17 38 33 79 36 93 2 14 8 27 14 28 5 2 9 10 9
18 0 8 7 17 16 21 8 3 13 12 10 20 -4 9 -2 11 6 7 7 -5 9 -2 5 9 -4 11 -2 14
9 10 7 -3 14 -1 14 5 0 6 -6 13 -12 15 -8 3 -6 6 4 6 19 1 43 38 40 61 -1 10
0 11 4 2 5 -10 9 -10 20 -1 12 10 12 14 2 20 -10 7 -10 9 0 9 6 0 12 6 12 14
0 8 5 18 12 22 7 4 8 3 4 -4 -4 -7 -3 -12 1 -12 5 0 14 9 21 21 8 12 9 18 3
14 -6 -3 -11 -1 -11 4 0 6 7 11 15 11 8 0 20 9 27 20 7 11 16 20 21 20 11 0
92 82 106 107 6 13 17 22 24 20 7 -1 11 3 10 10 -2 7 3 10 10 8 7 -3 17 5 22
17 6 13 26 31 45 40 19 9 40 21 45 25 19 15 115 64 115 59 0 -3 22 7 48 23 59
34 133 76 189 106 23 13 39 25 36 28 -3 3 4 3 16 0 12 -3 21 -1 21 6 0 6 6 11
14 11 8 0 27 5 43 12 34 14 39 15 59 17 8 0 12 6 8 12 -4 8 0 9 15 4 11 -3 21
-3 21 2 0 5 8 9 18 10 9 1 82 13 161 27 116 20 171 25 292 23 81 -1 152 2 156
7 4 4 10 0 12 -10 2 -14 5 -14 12 -3z m-431 -766 c-14 -17 -46 -20 -55 -6 -5
10 15 18 49 20 15 1 16 -2 6 -14z m-1337 -550 c-3 -9 -8 -14 -10 -11 -3 3 -2
9 2 15 9 16 15 13 8 -4z m8443 -477 c-3 -13 -8 -45 -11 -73 -10 -83 -80 -343
-120 -445 -88 -226 -120 -302 -176 -410 -59 -114 -81 -150 -92 -150 -3 0 -19
17 -35 38 l-30 38 23 49 c36 75 85 201 85 217 0 8 4 18 8 24 10 10 45 117 61
187 6 26 15 66 21 90 5 23 17 92 25 152 17 120 7 104 114 193 24 20 62 54 85
74 22 21 42 38 44 38 1 0 0 -10 -2 -22z m-6441 -243 c28 -21 53 -41 58 -45 4
-4 12 -44 17 -91 5 -46 19 -135 31 -196 12 -62 20 -115 17 -118 -5 -5 -109 52
-134 74 -21 17 -145 401 -159 491 l-7 45 64 -61 c34 -33 86 -78 113 -99z
m-1570 69 c57 -178 86 -270 85 -278 0 -8 -40 -78 -101 -176 -5 -8 -25 -45 -44
-82 -19 -38 -41 -68 -49 -68 -16 0 -37 47 -77 175 -37 117 -37 173 1 250 17
33 30 67 30 77 0 10 4 18 9 18 5 0 14 15 22 33 7 17 15 34 18 37 4 3 19 24 35
48 16 23 34 41 39 39 6 -2 20 -34 32 -73z m1140 -144 c3 -5 1 -10 -4 -10 -6 0
-11 5 -11 10 0 6 2 10 4 10 3 0 8 -4 11 -10z m6422 -42 c-3 -8 -6 -5 -6 6 -1
11 2 17 5 13 3 -3 4 -12 1 -19z m-5789 -31 c55 -39 190 -117 202 -117 4 0 18
-9 32 -20 22 -17 26 -29 31 -107 4 -48 16 -142 28 -208 11 -66 23 -140 26
-165 l5 -45 -48 55 c-69 78 -160 164 -220 207 -52 38 -52 38 -73 133 -12 52
-30 141 -40 198 -21 118 -19 121 57 69z m5799 -67 c11 33 11 33 12 8 1 -18 7
-28 16 -28 18 0 19 -18 1 -92 -7 -32 -10 -58 -7 -58 4 0 7 -9 8 -20 1 -11 -2
-18 -8 -15 -5 4 -9 -9 -9 -27 0 -19 -6 -42 -14 -53 -7 -11 -18 -33 -24 -50
-10 -28 -10 -28 -11 -5 -1 36 -18 13 -28 -40 -7 -35 -13 -44 -27 -42 -15 3
-16 1 -5 -11 8 -8 19 -12 24 -9 6 3 7 1 2 -3 -13 -15 -46 -13 -40 2 3 8 -2 13
-13 14 -17 1 -17 2 -1 6 21 5 21 8 1 66 -15 44 -15 50 0 81 9 19 16 39 16 46
0 6 4 9 9 6 5 -3 11 1 14 8 3 8 2 16 -3 18 -11 4 11 78 23 78 5 0 6 9 2 19 -3
11 -1 22 5 26 5 3 10 16 10 28 0 18 2 19 10 7 7 -11 10 -3 11 30 2 45 2 45 9
10 l6 -35 11 35z m64 -53 c-8 -8 -11 -7 -11 4 0 20 13 34 18 19 3 -7 -1 -17
-7 -23z m-7492 -51 c30 -52 39 -86 23 -86 -5 0 -59 -31 -121 -70 -128 -79
-132 -75 -50 48 27 41 46 79 42 84 -4 7 -1 8 7 3 10 -6 12 -4 7 9 -4 10 -3 15
3 11 6 -3 10 -2 10 3 0 8 37 52 45 52 2 0 17 -24 34 -54z m981 -27 c30 -6 59
-15 63 -19 5 -4 -16 -22 -45 -41 -163 -105 -408 -333 -612 -572 -27 -31 -53
-57 -57 -57 -42 0 89 351 182 487 47 68 136 161 189 195 44 29 48 30 135 24
50 -3 115 -10 145 -17z m-360 5 c0 -3 -26 -34 -57 -68 -87 -94 -141 -172 -193
-281 -60 -125 -84 -198 -111 -339 -26 -137 -27 -139 -39 -131 -29 18 -69 229
-70 370 0 172 72 359 154 402 59 31 316 69 316 47z m1401 -20 c66 -30 59 -14
79 -189 10 -88 60 -411 76 -488 l6 -28 -29 18 c-86 53 -95 67 -123 194 -43
194 -51 235 -65 343 -9 61 -18 126 -21 144 -8 40 0 40 77 6z m5456 4 c-3 -8
-6 -5 -6 6 -1 11 2 17 5 13 3 -3 4 -12 1 -19z m-601 -35 c109 -82 378 -335
454 -428 14 -16 36 -43 49 -58 13 -15 24 -39 24 -52 0 -23 -74 -127 -156 -220
-24 -27 -56 -63 -70 -80 l-25 -30 -54 51 c-29 28 -84 80 -123 115 -416 377
-607 567 -583 580 11 6 128 48 335 120 29 10 61 23 70 28 25 15 25 15 79 -26z
m-5671 -4 c75 -20 155 -61 155 -79 0 -9 -68 -91 -152 -181 -83 -90 -197 -213
-253 -274 -56 -60 -153 -168 -216 -240 -62 -71 -126 -143 -141 -160 -16 -16
-58 -69 -96 -117 -37 -48 -72 -88 -77 -88 -28 -1 -170 258 -161 294 6 23 7 25
98 141 226 289 610 645 758 704 33 13 38 13 85 0z m1003 -45 c70 -30 247 -91
342 -119 52 -15 100 -32 107 -39 6 -6 21 -59 32 -117 27 -138 89 -339 159
-513 81 -206 178 -379 310 -559 87 -119 236 -286 295 -332 21 -17 45 -37 54
-45 9 -8 43 -36 76 -62 33 -27 56 -48 51 -48 -22 0 -176 32 -244 51 -178 50
-430 147 -531 206 -108 62 -291 276 -401 468 -51 91 -127 244 -133 272 -2 10
-20 61 -39 113 -46 124 -90 326 -115 528 -30 234 -32 225 37 196z m-2028 -4
c0 -5 -9 -28 -21 -50 -33 -63 -59 -176 -65 -285 -18 -311 164 -707 493 -1072
46 -51 82 -97 78 -102 -3 -5 -41 -30 -86 -56 l-80 -46 -79 46 c-150 88 -388
371 -503 600 -83 166 -141 394 -140 555 0 86 3 101 31 156 47 94 140 167 307
241 57 25 65 27 65 13z m1329 -100 c28 -22 51 -43 51 -46 0 -18 -43 -144 -49
-144 -16 0 -181 113 -181 123 0 18 93 107 111 107 10 0 40 -18 68 -40z m7413
23 c69 -26 134 -80 178 -145 56 -84 75 -152 75 -268 0 -87 -3 -101 -34 -165
-87 -180 -296 -304 -496 -293 -67 3 -57 -12 -90 138 -17 76 -62 179 -93 214
-32 36 -95 76 -120 76 -24 0 -25 1 -18 58 18 157 143 310 306 375 81 33 222
38 292 10z m-6070 -122 c135 -34 292 -66 408 -82 47 -6 90 -16 97 -21 6 -5 24
-46 39 -91 43 -132 132 -353 195 -484 33 -68 59 -125 59 -128 0 -6 81 -137 90
-145 3 -3 18 -25 34 -50 171 -264 486 -559 731 -683 l30 -15 -38 -7 c-72 -14
-483 8 -583 30 -96 22 -264 128 -413 260 -159 140 -362 406 -470 615 -19 36
-49 90 -67 121 -62 104 -171 412 -214 606 -22 101 -22 103 -15 103 2 0 55 -13
117 -29z m-1168 -25 c71 -59 135 -127 136 -146 0 -24 -56 -137 -107 -214 -114
-173 -328 -410 -478 -527 -170 -134 -365 -278 -426 -315 l-65 -41 -28 22 c-33
27 -32 29 39 105 144 153 230 247 420 460 181 203 386 510 424 635 7 22 14 46
16 53 6 18 9 16 69 -32z m-262 -66 c29 -19 54 -43 56 -53 4 -20 -67 -137 -83
-137 -11 1 -188 146 -193 158 -1 4 18 31 44 60 l45 52 40 -23 c21 -12 62 -38
91 -57z m-1662 18 c0 -2 -7 -21 -15 -43 -19 -54 -19 -226 0 -323 22 -105 71
-253 113 -337 118 -236 302 -460 467 -569 39 -25 81 -54 93 -64 l24 -18 -24
-16 c-38 -25 -180 -70 -220 -70 -84 -1 -361 218 -480 379 -87 119 -154 275
-184 431 -36 191 0 376 99 507 55 73 128 143 127 123z m4020 -77 c205 -18 371
-30 426 -31 16 0 29 -13 44 -42 54 -104 208 -370 252 -435 48 -72 57 -93 38
-93 -5 0 -10 -7 -10 -16 0 -8 -5 -12 -11 -8 -6 3 -16 0 -21 -7 -7 -10 -11 -11
-14 -2 -4 9 -12 9 -32 1 -49 -19 -161 -48 -186 -48 -13 0 -26 -6 -29 -13 -7
-18 -315 -17 -326 1 -6 10 -15 12 -83 13 -16 0 -27 5 -25 12 1 7 -10 12 -28
12 -21 0 -37 9 -53 30 -62 79 -252 522 -268 626 l-6 36 53 -8 c30 -4 155 -17
279 -28z m1754 -22 c36 -17 41 -54 14 -108 -48 -95 -139 -161 -259 -189 -46
-12 -91 -23 -101 -27 -12 -5 -32 16 -81 87 -62 89 -112 176 -105 183 2 2 77
13 168 25 91 12 181 25 200 30 52 12 136 12 164 -1z m-4351 -11 c34 -17 168
-129 174 -144 5 -13 -102 -164 -115 -164 -4 1 -31 31 -59 68 -29 37 -69 84
-88 104 -19 20 -35 40 -35 45 0 10 85 103 95 103 3 0 16 -5 28 -12z m3377 -18
c12 -8 10 -10 -10 -12 -50 -3 153 -13 211 -10 54 3 58 5 42 18 -16 12 -14 13
22 14 22 0 50 -7 62 -15 11 -8 50 -61 84 -117 71 -114 184 -285 205 -308 8 -8
46 -55 85 -105 80 -102 366 -388 473 -473 39 -31 78 -63 87 -72 9 -8 49 -37
88 -65 l72 -50 -61 -27 c-33 -15 -123 -48 -200 -74 -117 -38 -147 -45 -184
-40 -101 15 -390 229 -585 432 -115 120 -339 398 -413 514 -129 202 -219 376
-203 392 9 8 212 7 225 -2z m-2653 -77 c13 -16 38 -52 54 -81 38 -64 36 -79
-24 -212 -174 -382 -540 -781 -967 -1050 -121 -77 -375 -206 -425 -216 -5 -2
-47 -16 -93 -33 -84 -31 -216 -64 -305 -76 -45 -6 -50 -5 -90 32 -23 21 -60
49 -82 63 -22 13 -62 42 -90 64 -27 22 -51 41 -53 42 -2 1 7 22 19 47 21 43
26 47 68 52 244 29 401 78 641 200 341 174 751 491 1021 791 90 100 249 310
249 329 0 7 44 75 49 75 2 0 14 -12 28 -27z m4792 -65 c1 -5 -3 -8 -8 -8 -12
0 -22 30 -14 43 6 10 20 -13 22 -35z m-5600 -61 c40 -46 80 -95 89 -109 15
-25 14 -28 -12 -68 -15 -23 -31 -40 -36 -38 -23 8 -209 202 -203 212 17 29 69
86 78 86 6 0 44 -37 84 -83z m5610 43 c17 9 20 8 15 -5 -4 -8 -11 -15 -18 -15
-6 0 -4 -5 4 -10 8 -5 20 -10 25 -10 6 0 4 4 -3 9 -11 7 -11 9 1 14 37 14 -10
-75 -74 -142 -8 -9 -23 -29 -34 -46 -55 -89 -295 -342 -295 -311 0 9 -8 16
-19 16 -11 0 -23 5 -26 10 -3 6 -1 10 6 10 13 0 3 14 -12 16 -5 1 -13 2 -19 3
-18 2 -11 15 32 61 22 25 72 79 111 120 79 86 89 97 141 163 30 37 41 46 48
35 7 -9 8 -7 3 8 -3 13 3 31 17 50 43 56 42 55 60 33 14 -16 21 -18 37 -9z
m1711 -76 c44 -48 83 -123 78 -152 -1 -9 1 -23 6 -31 7 -10 3 -12 -15 -7 -13
3 -18 3 -11 0 6 -3 13 -24 13 -47 l2 -42 6 40 7 40 5 -50 c3 -27 3 -79 -1
-114 -5 -57 -10 -67 -40 -93 -19 -15 -40 -26 -47 -24 -7 3 -12 1 -10 -3 1 -5
-2 -9 -6 -9 -5 -1 -14 -7 -20 -15 -7 -8 -34 -27 -62 -42 -27 -15 -58 -34 -67
-42 -9 -8 -22 -12 -29 -7 -7 4 -10 3 -6 -3 7 -12 -101 -73 -129 -73 -9 0 -14
-3 -11 -6 4 -4 -40 -35 -96 -70 -95 -59 -136 -77 -122 -54 3 6 1 10 -5 10 -7
0 -10 -6 -7 -14 4 -10 -14 -26 -54 -50 -33 -20 -64 -36 -68 -36 -5 0 -14 -7
-21 -15 -7 -9 -19 -14 -27 -11 -8 3 -12 2 -9 -2 3 -5 -16 -19 -42 -33 -26 -13
-59 -32 -73 -43 -16 -10 -32 -15 -40 -11 -7 5 -10 4 -6 -2 3 -5 -12 -20 -33
-32 -22 -12 -40 -19 -40 -14 0 4 -4 3 -8 -4 -7 -11 -157 -103 -168 -103 -3 0
-29 -16 -59 -35 -30 -19 -85 -51 -122 -71 -38 -19 -75 -39 -83 -44 -8 -4 -46
-13 -85 -18 -40 -7 -94 -24 -128 -41 -33 -17 -64 -28 -71 -24 -6 3 -8 2 -4 -2
16 -17 -200 -146 -467 -279 l-110 -55 -5 86 c-3 55 -9 88 -17 90 -14 5 -20
-18 -26 -93 -5 -68 -37 -130 -97 -193 -107 -109 -256 -149 -411 -110 -36 9
-36 10 -32 52 4 33 -1 55 -20 94 -31 60 -109 132 -146 134 -14 1 -35 2 -46 3
-18 1 -20 7 -17 66 9 247 219 435 446 400 95 -14 165 -50 221 -112 27 -30 49
-47 53 -41 4 5 34 25 68 44 l61 33 33 -27 c55 -47 89 -60 134 -53 38 7 238
105 436 216 385 215 547 309 571 333 49 49 32 115 -41 156 l-41 23 133 82
c366 226 520 323 722 452 122 78 231 142 242 143 13 1 37 -16 64 -45z m-8945
-126 c0 -73 6 -164 14 -203 18 -88 70 -229 121 -322 l40 -72 -70 -104 c-38
-58 -77 -121 -86 -141 -10 -20 -21 -36 -26 -36 -22 0 -138 272 -152 356 -16
90 29 344 85 488 20 50 71 166 73 166 0 0 1 -60 1 -132z m1469 71 c19 -16 63
-61 97 -100 l61 -69 -26 -33 c-14 -17 -52 -61 -84 -96 -47 -51 -62 -62 -75
-55 -32 18 -187 177 -187 192 0 23 146 191 167 192 7 0 28 -14 47 -31z m1121
-63 c33 -56 57 -129 53 -158 -2 -19 -12 -9 -54 55 -49 73 -51 80 -41 112 6 19
12 35 13 35 2 0 15 -20 29 -44z m-42 -173 c14 -27 31 -69 37 -95 11 -41 9 -55
-10 -115 -35 -107 -166 -349 -230 -426 -6 -7 -24 -30 -41 -52 -69 -91 -108
-135 -204 -231 -103 -103 -212 -198 -274 -240 -20 -13 -55 -37 -79 -54 -23
-16 -45 -30 -47 -30 -3 0 -29 -16 -60 -35 -30 -19 -65 -40 -77 -46 -13 -5 -45
-22 -73 -38 -40 -23 -58 -28 -91 -24 -24 3 -44 1 -48 -5 -3 -6 20 -30 51 -54
149 -111 385 -212 591 -253 33 -7 33 -7 13 -22 -25 -17 -166 -66 -260 -90 -36
-9 -104 -17 -151 -17 -130 -1 -276 55 -467 181 -46 30 -88 59 -95 66 -7 7 -45
38 -83 69 -78 63 -185 171 -203 205 -11 21 -9 22 46 33 152 31 384 118 557
209 363 192 761 537 976 846 18 27 38 54 42 60 26 34 92 145 109 182 23 51 31
49 71 -24z m-1244 -53 c50 -44 93 -90 96 -101 8 -23 1 -31 -150 -186 -44 -46
-85 -83 -91 -83 -14 0 -78 70 -120 132 -16 24 -33 46 -38 50 -6 4 7 28 28 55
85 109 171 212 179 213 4 0 47 -36 96 -80z m8218 8 c5 14 23 16 23 3 0 -13
-37 -24 -50 -16 -6 4 -7 11 -4 17 4 6 10 5 16 -3 7 -11 11 -11 15 -1z m-6809
-84 c12 -34 24 -72 27 -85 3 -13 14 -64 26 -114 18 -79 20 -110 15 -260 -3
-103 -11 -190 -20 -220 -21 -75 -77 -229 -85 -238 -4 -4 -13 48 -20 116 -14
148 -41 310 -71 426 l-21 84 24 51 c28 61 61 166 78 254 6 35 15 60 19 55 4
-4 17 -36 28 -69z m6433 16 c-21 -18 -41 -26 -41 -16 0 21 16 36 39 36 l26 -1
-24 -19z m240 -164 c-9 -11 -9 -15 1 -19 9 -4 9 -6 1 -6 -6 -1 -15 4 -18 9 -8
12 2 30 17 30 7 0 7 -5 -1 -14z m-6347 -156 c9 0 16 -7 16 -15 0 -8 7 -15 15
-15 8 0 15 -5 15 -10 0 -14 -47 12 -90 51 -34 30 -34 30 -3 10 17 -12 38 -21
47 -21z m4752 -4 c29 -20 21 -44 -23 -66 -15 -8 -57 -31 -93 -51 -622 -353
-784 -439 -827 -439 -19 0 -39 10 -57 29 l-28 29 43 23 c24 12 109 60 189 107
250 146 542 313 620 354 81 43 125 46 176 14z m1349 -6 c-10 -11 -25 -20 -33
-20 -9 0 -6 7 9 20 31 25 47 26 24 0z m-8685 -286 c0 -2 -29 -42 -63 -90 -112
-150 -186 -314 -202 -447 -4 -32 -10 -57 -14 -57 -27 0 -167 208 -196 289 -14
40 -14 50 0 103 18 71 162 358 205 410 l31 37 119 -121 c66 -67 120 -123 120
-124z m2084 135 c9 -39 21 -100 27 -137 6 -37 15 -87 20 -110 5 -24 13 -102
16 -172 6 -118 4 -134 -17 -189 -12 -34 -39 -80 -59 -103 -36 -40 -38 -41
-114 -46 l-76 -5 18 69 c41 148 52 344 27 480 l-13 71 70 107 c39 58 73 106
77 106 5 0 15 -32 24 -71z m6560 37 c-10 -8 -21 -12 -24 -10 -5 6 21 24 34 24
6 0 1 -6 -10 -14z m-189 -37 c11 -17 -1 -21 -15 -4 -8 9 -8 15 -2 15 6 0 14
-5 17 -11z m-8972 -159 c9 -13 17 -34 17 -45 -1 -26 -35 -91 -42 -79 -19 33
-68 232 -68 273 0 9 17 -15 38 -54 20 -38 45 -81 55 -95z m8947 140 c8 -5 11
-10 5 -10 -5 0 -17 5 -25 10 -8 5 -10 10 -5 10 6 0 17 -5 25 -10z m-65 -40
c-3 -5 -11 -10 -16 -10 -6 0 -7 5 -4 10 3 6 11 10 16 10 6 0 7 -4 4 -10z m-28
-46 c-3 -3 -12 -4 -19 -1 -8 3 -5 6 6 6 11 1 17 -2 13 -5z m100 -10 c-3 -3
-12 -4 -19 -1 -8 3 -5 6 6 6 11 1 17 -2 13 -5z m-241 -49 c-11 -8 -25 -15 -30
-15 -6 0 -2 7 8 15 11 8 25 15 30 15 6 0 2 -7 -8 -15z m-8081 -46 c17 -12 22
-18 11 -15 -10 4 -24 2 -31 -4 -7 -6 -25 -8 -40 -4 l-28 7 24 18 c30 23 28 23
64 -2z m8042 -11 c-3 -8 -6 -5 -6 6 -1 11 2 17 5 13 3 -3 4 -12 1 -19z m-60
-14 c-3 -3 -12 -4 -19 -1 -8 3 -5 6 6 6 11 1 17 -2 13 -5z m50 -24 c-4 -18 -2
-20 16 -14 20 6 20 5 -3 -14 -15 -13 -20 -21 -11 -22 11 0 11 -3 1 -15 -18
-21 0 -18 30 5 l25 19 -25 -5 c-24 -5 -24 -5 -7 10 20 16 95 32 104 22 4 -3
-3 -6 -15 -6 -12 0 -22 -4 -22 -10 0 -10 -127 -95 -170 -114 -14 -6 -27 -14
-30 -17 -3 -4 -38 -28 -79 -53 -54 -33 -81 -44 -100 -41 -21 4 -22 4 -6 -3 19
-8 18 -9 -5 -23 -14 -7 -32 -12 -40 -10 -8 2 -12 0 -8 -4 10 -10 -39 -48 -52
-40 -6 4 -9 2 -8 -4 4 -16 -72 -59 -94 -54 -23 7 -24 43 0 43 9 0 24 5 32 11
13 9 12 10 -3 5 -15 -5 -18 -1 -15 16 2 18 10 22 43 22 31 1 40 5 39 18 -1 9
5 19 12 22 8 3 14 -1 14 -8 0 -8 11 -13 29 -12 22 1 27 4 21 16 -4 8 -5 21 -3
28 6 15 83 16 83 1 0 -6 7 -3 16 5 8 9 22 16 30 16 8 0 14 5 14 10 0 14 -7 13
-35 -6 -17 -11 -25 -13 -25 -4 0 6 10 14 22 18 21 5 21 6 2 14 -16 7 -16 8 4
4 29 -6 52 2 52 17 0 6 8 19 17 29 15 17 15 21 3 29 -10 6 -5 7 16 3 19 -4 34
-1 38 5 5 7 15 6 34 -5 22 -13 24 -13 9 -1 -23 19 -19 49 6 53 25 3 29 8 31
38 0 14 5 26 10 26 4 0 6 -9 3 -20z m-70 -6 c-3 -3 -12 -4 -19 -1 -8 3 -5 6 6
6 11 1 17 -2 13 -5z m40 0 c-3 -3 -12 -4 -19 -1 -8 3 -5 6 6 6 11 1 17 -2 13
-5z m-173 -59 c-10 -8 -23 -14 -29 -14 -5 0 -1 6 9 14 11 8 24 15 30 15 5 0 1
-7 -10 -15z m-134 -85 c0 -5 -4 -10 -10 -10 -5 0 -10 5 -10 10 0 6 5 10 10 10
6 0 10 -4 10 -10z m-7884 -117 c28 -21 72 -53 97 -72 38 -28 46 -39 41 -55 -4
-11 -6 -65 -6 -119 1 -80 7 -113 32 -189 17 -51 36 -99 43 -107 22 -26 -34 -1
-108 50 -117 79 -189 142 -209 183 -17 35 -18 48 -8 135 9 87 45 211 61 211 4
0 29 -17 57 -37z m7881 11 c-3 -3 -12 -4 -19 -1 -8 3 -5 6 6 6 11 1 17 -2 13
-5z m-634 -19 c132 -34 235 -120 276 -230 44 -115 18 -246 -67 -340 -114 -128
-317 -199 -473 -166 -184 38 -309 164 -309 312 0 131 122 301 274 380 107 56
200 70 299 44z m487 -15 c0 -5 -4 -10 -10 -10 -5 0 -10 5 -10 10 0 6 5 10 10
10 6 0 10 -4 10 -10z m-87 -7 c-20 -8 -15 -21 9 -25 25 -4 37 -28 14 -28 -9 0
-16 4 -16 9 0 5 -9 13 -21 16 -16 5 -18 10 -8 21 6 8 17 14 23 13 7 0 6 -2 -1
-6z m41 -106 c11 -10 10 -15 -1 -25 -7 -7 -17 -10 -22 -7 -5 3 -12 -4 -16 -15
-9 -28 -23 -25 -31 6 -5 20 -9 23 -16 12 -8 -11 -9 -10 -6 1 2 8 13 16 25 17
17 3 20 -1 17 -19 -2 -12 1 -7 8 11 12 35 22 39 42 19z m-6271 -51 c18 -8 50
-19 72 -26 22 -6 49 -15 60 -20 73 -31 270 -68 378 -71 37 -1 67 -6 67 -10 0
-5 7 -6 15 -3 49 19 -27 -61 -138 -145 -64 -47 -72 -51 -125 -51 -131 0 -309
49 -495 138 l-117 55 97 55 c54 30 109 63 122 73 28 23 25 22 64 5z m4136
-181 c38 -44 64 -93 58 -110 -7 -16 -378 -227 -790 -448 -131 -70 -171 -87
-177 -76 -5 7 -7 16 -4 20 2 4 0 10 -6 14 -5 3 -10 11 -10 16 0 6 6 7 13 3 9
-6 9 -4 -1 8 -7 9 -9 18 -5 20 4 3 3 3 -4 2 -19 -5 -60 33 -48 45 28 28 831
508 889 531 37 15 53 11 85 -25z m1044 -118 c9 -30 17 -59 17 -65 0 -14 -1060
-544 -1109 -554 -9 -2 -18 10 -23 32 -6 19 -14 40 -20 47 -11 14 25 38 142 97
41 21 80 42 85 46 12 8 293 154 520 269 88 44 203 103 255 131 52 27 100 50
106 50 6 0 18 -24 27 -53z m-6049 -9 c-5 -8 -2 -9 10 -5 12 5 33 -6 69 -37 29
-24 68 -51 87 -61 19 -10 46 -26 59 -36 l24 -19 -36 -15 c-19 -8 -55 -17 -79
-21 -23 -3 -52 -7 -64 -9 -54 -8 -228 48 -272 88 -12 12 -29 34 -37 51 -19 37
-9 45 60 46 28 1 77 7 110 15 77 17 78 17 69 3z m375 -224 c2 -2 -17 -4 -43
-4 -27 0 -45 4 -41 9 5 9 73 4 84 -5z m3595 -202 c79 -71 53 -199 -49 -237
-120 -46 -221 38 -186 156 26 88 171 138 235 81z m835 -96 c64 -34 85 -125 42
-183 -32 -43 -112 -77 -164 -70 -128 17 -137 197 -12 253 40 18 99 17 134 0z"/>
<path d="M7890 7620 c0 -6 7 -10 15 -10 8 0 15 2 15 4 0 2 -7 6 -15 10 -8 3
-15 1 -15 -4z"/>
<path d="M7883 7540 c0 -36 2 -50 4 -32 2 17 2 47 0 65 -2 17 -4 3 -4 -33z"/>
<path d="M7906 7578 c-3 -13 -1 -27 4 -32 7 -7 10 1 10 22 0 37 -5 41 -14 10z"/>
<path d="M7911 7394 c0 -11 3 -14 6 -6 3 7 2 16 -1 19 -3 4 -6 -2 -5 -13z"/>
<path d="M7866 7355 c-25 -10 -26 -13 -10 -18 11 -4 30 -11 44 -17 l25 -10
-25 20 -25 21 40 -5 c22 -3 31 -3 20 0 -11 4 -24 10 -30 14 -5 4 -23 2 -39 -5z"/>
<path d="M7938 7313 c6 -2 18 -2 25 0 6 3 1 5 -13 5 -14 0 -19 -2 -12 -5z"/>
<path d="M8120 7260 c0 -5 7 -7 15 -4 8 4 15 8 15 10 0 2 -7 4 -15 4 -8 0 -15
-4 -15 -10z"/>
<path d="M2963 6723 c-23 -9 -14 -18 20 -19 17 -1 24 1 14 3 -9 2 -15 9 -12
14 7 10 -2 11 -22 2z"/>
<path d="M3176 6604 c-11 -8 -16 -14 -10 -14 13 0 39 18 34 24 -3 2 -14 -2
-24 -10z"/>
<path d="M6363 8043 c9 -2 23 -2 30 0 6 3 -1 5 -18 5 -16 0 -22 -2 -12 -5z"/>
<path d="M6060 7320 c6 -11 15 -18 21 -15 5 4 3 12 -5 21 -21 20 -28 17 -16
-6z"/>
<path d="M6120 7234 c0 -8 5 -12 10 -9 6 3 10 10 10 16 0 5 -4 9 -10 9 -5 0
-10 -7 -10 -16z"/>
<path d="M6190 7190 c0 -5 5 -10 11 -10 5 0 7 5 4 10 -3 6 -8 10 -11 10 -2 0
-4 -4 -4 -10z"/>
<path d="M6222 7170 c0 -14 2 -19 5 -12 2 6 2 18 0 25 -3 6 -5 1 -5 -13z"/>
<path d="M6180 7163 c0 -4 5 -15 10 -23 8 -13 10 -13 10 2 0 9 -4 20 -10 23
-5 3 -10 3 -10 -2z"/>
<path d="M6365 7160 c4 -6 11 -8 16 -5 14 9 11 15 -7 15 -8 0 -12 -5 -9 -10z"/>
<path d="M6214 7122 c-8 -5 -5 -16 9 -37 18 -28 18 -22 0 22 -4 11 -3 14 5 9
7 -4 12 -2 12 3 0 13 -10 14 -26 3z"/>
<path d="M6298 7035 c-3 -6 0 -23 7 -40 14 -32 18 -17 6 25 -4 14 -10 20 -13
15z"/>
<path d="M7145 6990 c-3 -5 -1 -10 4 -10 6 0 11 5 11 10 0 6 -2 10 -4 10 -3 0
-8 -4 -11 -10z"/>
<path d="M6318 6959 c-10 -5 -18 -15 -18 -22 0 -8 3 -9 8 -1 4 6 16 16 27 22
11 6 16 11 10 11 -5 0 -18 -4 -27 -10z"/>
<path d="M6376 6863 c-6 -14 -5 -15 5 -6 7 7 10 15 7 18 -3 3 -9 -2 -12 -12z"/>
<path d="M6428 6742 c9 -10 19 -14 21 -9 2 5 -3 13 -10 18 -24 15 -30 10 -11
-9z"/>
<path d="M7430 7270 c0 -5 5 -10 11 -10 5 0 7 5 4 10 -3 6 -8 10 -11 10 -2 0
-4 -4 -4 -10z"/>
<path d="M7443 7243 c9 -2 25 -2 35 0 9 3 1 5 -18 5 -19 0 -27 -2 -17 -5z"/>
<path d="M7350 6030 c0 -5 5 -10 11 -10 5 0 7 5 4 10 -3 6 -8 10 -11 10 -2 0
-4 -4 -4 -10z"/>
<path d="M6867 6003 c-11 -11 -8 -20 7 -20 8 0 12 6 9 14 -6 15 -7 15 -16 6z"/>
<path d="M7363 5971 c0 -16 6 -32 14 -35 16 -7 16 12 -1 42 -13 24 -13 24 -13
-7z"/>
<path d="M6101 5954 c0 -11 3 -14 6 -6 3 7 2 16 -1 19 -3 4 -6 -2 -5 -13z"/>
<path d="M7384 5903 c2 -10 7 -28 11 -40 3 -13 12 -23 19 -23 8 0 11 -10 8
-30 -3 -18 0 -30 7 -30 6 0 10 -3 9 -7 -6 -21 25 -113 38 -113 8 0 14 -7 14
-17 0 -9 2 -14 5 -11 10 10 -7 58 -18 51 -5 -3 -7 -1 -3 5 3 6 0 30 -9 54 -8
24 -15 52 -15 63 -1 11 -10 36 -21 55 -14 24 -19 28 -15 12 2 -13 0 -20 -6
-16 -5 4 -7 19 -4 35 4 22 2 29 -10 29 -10 0 -14 -6 -10 -17z"/>
<path d="M6901 5894 c0 -11 3 -14 6 -6 3 7 2 16 -1 19 -3 4 -6 -2 -5 -13z"/>
<path d="M3403 5818 c4 -12 2 -18 -8 -18 -8 0 -15 -4 -15 -8 0 -4 -22 -30 -48
-58 -88 -92 -120 -200 -102 -339 16 -113 19 -127 33 -122 7 2 25 -13 40 -34
43 -58 125 -94 212 -94 86 1 145 25 205 85 65 65 94 137 98 246 4 107 -7 155
-51 220 -68 102 -164 144 -279 124 -47 -9 -63 -8 -76 2 -13 11 -15 11 -9 -4z
m195 -151 c11 -22 11 -32 0 -54 -28 -58 -106 -52 -136 10 -26 54 34 106 93 83
17 -7 36 -24 43 -39z"/>
<path d="M6935 5787 c4 -12 11 -26 16 -31 5 -6 9 -22 9 -37 0 -15 5 -31 10
-34 6 -3 10 -19 10 -35 0 -33 10 -43 30 -29 9 5 10 9 3 9 -12 0 -27 41 -38
103 -4 23 -10 35 -17 31 -6 -4 -8 1 -4 14 4 13 1 22 -9 26 -13 5 -15 1 -10
-17z"/>
<path d="M6181 5724 c0 -11 3 -14 6 -6 3 7 2 16 -1 19 -3 4 -6 -2 -5 -13z"/>
<path d="M2617 5673 c-9 -15 -19 -78 -12 -71 4 3 10 23 15 42 8 34 6 45 -3 29z"/>
<path d="M7474 5635 c12 -47 31 -95 38 -95 5 0 8 -11 8 -24 0 -14 5 -28 10
-31 6 -3 10 -23 10 -43 0 -25 3 -32 9 -23 7 10 10 10 16 1 4 -7 2 -15 -4 -19
-9 -6 -8 -15 4 -37 8 -16 15 -39 15 -52 0 -13 4 -20 10 -17 12 8 13 -5 0 -25
-5 -9 -5 -17 0 -20 6 -3 13 -34 16 -68 7 -66 20 -80 30 -34 3 15 7 33 10 40 2
6 -1 12 -5 12 -5 0 -12 -6 -15 -12 -3 -7 -3 -3 0 10 7 29 -27 163 -40 155 -5
-3 -6 -1 -2 6 8 13 -11 81 -23 81 -5 0 -11 24 -15 54 -6 52 -31 126 -42 126
-3 0 -4 -7 0 -15 11 -29 -5 -15 -20 18 -8 17 -13 23 -10 12z"/>
<path d="M6223 5590 c-1 -11 2 -20 7 -20 5 0 10 -6 13 -12 2 -7 2 -2 0 12 -6
33 -18 45 -20 20z"/>
<path d="M7011 5601 c-9 -6 -10 -11 -2 -15 6 -4 11 -18 11 -31 0 -12 7 -25 15
-29 18 -7 18 -7 0 37 -8 19 -11 37 -8 41 9 9 0 7 -16 -3z"/>
<path d="M2591 5565 c-1 -11 -4 -31 -7 -45 -5 -22 -4 -23 6 -7 6 10 9 30 7 45
-3 18 -5 20 -6 7z"/>
<path d="M5930 5551 c-90 -29 -160 -91 -206 -181 -26 -50 -29 -64 -29 -165 0
-102 2 -114 29 -168 115 -227 414 -234 548 -13 18 31 38 56 45 56 7 0 10 7 6
17 -5 12 -2 15 10 10 14 -5 16 -2 13 16 -3 12 -8 51 -11 87 -7 71 -49 230 -64
239 -5 3 -11 17 -14 31 -4 25 -4 25 -6 -2 0 -16 -4 -28 -7 -28 -3 0 -24 15
-47 34 -23 18 -58 41 -77 51 -38 20 -150 29 -190 16z m80 -136 c71 -37 34
-134 -52 -135 -61 0 -96 57 -64 106 29 42 70 53 116 29z"/>
<path d="M7020 5510 c0 -5 5 -10 10 -10 6 0 10 -15 10 -32 0 -26 3 -30 11 -18
7 11 8 5 3 -21 -6 -35 8 -60 24 -44 3 3 0 10 -8 15 -10 6 -11 12 -2 22 7 9 8
19 2 28 -6 8 -10 25 -10 36 0 12 -7 25 -16 28 -21 8 -24 8 -24 -4z"/>
<path d="M2561 5427 c2 -1 12 -9 22 -16 15 -12 17 -12 11 3 -3 9 -13 16 -22
16 -8 0 -13 -1 -11 -3z"/>
<path d="M2577 5363 c-4 -3 -7 -11 -7 -17 0 -6 5 -5 12 2 6 6 9 14 7 17 -3 3
-9 2 -12 -2z"/>
<path d="M7073 5355 c-3 -9 -3 -18 -1 -21 3 -3 8 4 11 16 6 23 -1 27 -10 5z"/>
<path d="M4248 5338 c-8 -14 -13 -57 -13 -108 0 -75 3 -91 27 -132 33 -55 77
-85 151 -100 45 -10 62 -9 108 6 30 10 71 31 92 48 l38 30 22 -29 c38 -48 58
-64 102 -84 109 -48 202 -33 277 43 89 92 108 258 29 258 -28 0 -38 -18 -57
-100 -27 -120 -92 -163 -190 -125 -51 19 -78 51 -108 127 -19 47 -25 53 -52
56 -28 3 -35 -2 -63 -48 -25 -40 -43 -57 -84 -75 -63 -30 -92 -31 -135 -5 -46
28 -63 75 -61 164 1 41 -1 79 -5 85 -13 20 -64 13 -78 -11z"/>
<path d="M2551 5324 c0 -11 3 -14 6 -6 3 7 2 16 -1 19 -3 4 -6 -2 -5 -13z"/>
<path d="M2560 5279 c0 -5 5 -7 10 -4 6 3 10 8 10 11 0 2 -4 4 -10 4 -5 0 -10
-5 -10 -11z"/>
<path d="M3161 4848 c1 -18 3 -25 6 -15 2 9 9 15 14 12 14 -9 11 5 -6 21 -13
14 -15 12 -14 -18z"/>
<path d="M3148 4775 c-12 -58 -9 -102 8 -116 16 -13 17 -11 10 14 -4 18 -2 34
5 43 7 9 8 14 1 14 -6 0 -12 17 -14 38 -3 37 -3 37 -10 7z"/>
<path d="M3177 4783 c-4 -3 -7 -11 -7 -17 0 -6 5 -5 12 2 6 6 9 14 7 17 -3 3
-9 2 -12 -2z"/>
<path d="M3162 4615 c0 -16 2 -22 5 -12 2 9 2 23 0 30 -3 6 -5 -1 -5 -18z"/>
<path d="M6435 4479 c-4 -6 -5 -12 -2 -15 2 -3 7 2 10 11 7 17 1 20 -8 4z"/>
<path d="M6765 6360 c3 -5 8 -10 11 -10 2 0 4 5 4 10 0 6 -5 10 -11 10 -5 0
-7 -4 -4 -10z"/>
<path d="M2023 6173 c9 -2 25 -2 35 0 9 3 1 5 -18 5 -19 0 -27 -2 -17 -5z"/>
<path d="M1947 6159 c7 -7 15 -10 18 -7 3 3 -2 9 -12 12 -14 6 -15 5 -6 -5z"/>
<path d="M1870 6145 c-118 -32 -140 -40 -140 -47 0 -4 -9 -8 -19 -8 -11 0 -23
-5 -26 -11 -4 -6 -13 -8 -21 -5 -8 3 -14 1 -14 -4 0 -6 -9 -10 -20 -10 -14 0
-20 -6 -19 -22 1 -18 2 -19 6 -5 2 9 9 15 14 11 5 -3 24 4 43 15 18 12 42 21
53 21 11 0 23 3 27 7 4 4 19 9 34 11 15 2 30 9 34 15 6 9 8 8 8 -2 0 -11 3
-11 15 -1 8 7 15 9 15 4 0 -5 5 -1 11 10 7 11 14 14 18 8 4 -7 12 -6 24 3 27
20 8 24 -43 10z"/>
<path d="M1110 6105 c0 -8 2 -15 4 -15 2 0 6 7 10 15 3 8 1 15 -4 15 -6 0 -10
-7 -10 -15z"/>
<path d="M1036 6025 c-3 -8 -1 -15 4 -15 6 0 10 7 10 15 0 8 -2 15 -4 15 -2 0
-6 -7 -10 -15z"/>
<path d="M1560 6033 c-8 -3 -21 -10 -28 -16 -8 -6 -23 -12 -35 -12 -11 -1 -23
-7 -25 -13 -2 -7 -14 -12 -27 -12 -12 0 -28 -6 -34 -14 -9 -11 -7 -15 9 -19
14 -3 20 0 20 10 0 13 3 13 15 3 11 -9 15 -10 15 -1 0 22 26 41 39 28 7 -7 11
-7 11 -1 0 6 18 16 40 23 22 6 40 16 40 21 0 11 -16 12 -40 3z"/>
<path d="M1337 5909 c4 -13 8 -18 11 -10 2 7 -1 18 -6 23 -8 8 -9 4 -5 -13z"/>
<path d="M1290 5902 c0 -12 19 -26 26 -19 2 2 -2 10 -11 17 -9 8 -15 8 -15 2z"/>
<path d="M1265 5890 c-3 -5 -1 -10 4 -10 6 0 11 5 11 10 0 6 -2 10 -4 10 -3 0
-8 -4 -11 -10z"/>
<path d="M1215 5861 c-3 -5 -1 -12 4 -15 5 -3 11 1 15 9 6 16 -9 21 -19 6z"/>
<path d="M1268 5863 c7 -3 16 -2 19 1 4 3 -2 6 -13 5 -11 0 -14 -3 -6 -6z"/>
<path d="M1188 5838 c-8 -20 13 -30 33 -16 11 8 11 9 -3 4 -11 -3 -18 1 -20
12 -3 16 -4 16 -10 0z"/>
<path d="M1162 5800 c0 -14 2 -19 5 -12 2 6 2 18 0 25 -3 6 -5 1 -5 -13z"/>
<path d="M1107 5780 c-9 -11 -13 -20 -7 -20 5 0 14 9 20 20 6 11 9 20 8 20 -2
0 -11 -9 -21 -20z"/>
<path d="M863 5703 c3 -13 1 -23 -4 -23 -5 0 -9 -7 -9 -15 0 -8 4 -15 9 -15
14 0 21 42 10 59 -8 13 -9 12 -6 -6z"/>
<path d="M995 5680 c3 -5 8 -10 11 -10 2 0 4 5 4 10 0 6 -5 10 -11 10 -5 0 -7
-4 -4 -10z"/>
<path d="M948 5673 c-15 -4 -34 -50 -25 -59 2 -3 15 5 28 17 13 11 18 18 12
14 -16 -8 -17 7 -1 23 7 7 10 11 8 11 -3 -1 -12 -3 -22 -6z"/>
<path d="M891 5634 c-9 -11 -17 -12 -24 -5 -16 16 -45 -5 -52 -38 -3 -16 -13
-35 -21 -42 -8 -6 -14 -21 -14 -33 0 -17 -2 -18 -10 -6 -5 8 -10 11 -10 5 0
-5 4 -17 10 -25 7 -11 11 -9 19 13 7 18 15 25 26 21 11 -5 14 -2 9 10 -4 12
-2 15 9 10 9 -3 21 4 31 18 9 12 16 19 16 15 0 -19 27 21 32 46 6 30 0 34 -21
11z"/>
<path d="M722 5485 c-16 -16 -21 -29 -15 -39 12 -21 29 -7 38 32 8 38 7 39
-23 7z"/>
<path d="M680 5438 c0 -7 4 -19 9 -27 7 -10 9 -7 8 12 -2 26 -17 39 -17 15z"/>
<path d="M653 5413 c-7 -3 -13 -9 -13 -14 0 -6 -9 -19 -20 -31 -22 -24 -26
-43 -10 -53 6 -3 10 3 10 15 0 12 9 24 24 30 13 5 27 14 31 19 9 15 -7 39 -22
34z"/>
<path d="M1040 5396 c0 -15 18 -31 26 -23 7 7 -7 37 -17 37 -5 0 -9 -6 -9 -14z"/>
<path d="M1005 5370 c3 -5 14 -10 23 -10 15 0 15 2 2 10 -20 13 -33 13 -25 0z"/>
<path d="M580 5309 c0 -5 -4 -8 -8 -5 -10 6 -52 -65 -52 -88 0 -9 5 -16 11
-16 5 0 7 5 4 10 -3 6 1 13 9 16 9 3 16 14 16 23 0 9 9 22 20 29 21 13 28 42
10 42 -5 0 -10 -5 -10 -11z"/>
<path d="M490 5186 c0 -14 5 -28 10 -31 6 -4 10 7 10 24 0 17 -4 31 -10 31 -5
0 -10 -11 -10 -24z"/>
<path d="M730 5131 c0 -20 -32 -46 -43 -35 -3 3 -3 -3 0 -14 4 -18 7 -18 34 9
31 30 35 44 19 54 -5 3 -10 -3 -10 -14z"/>
<path d="M705 5129 c-4 -6 -5 -12 -2 -15 2 -3 7 2 10 11 7 17 1 20 -8 4z"/>
<path d="M1734 5029 c4 -19 8 -42 9 -51 2 -28 17 -21 17 7 0 14 -5 25 -11 25
-6 0 -9 9 -6 20 3 11 0 23 -5 26 -7 5 -8 -5 -4 -27z"/>
<path d="M634 5029 c0 -24 8 -24 29 -1 14 16 14 17 -7 18 -15 1 -22 -4 -22
-17z"/>
<path d="M580 4980 c-1 -8 -2 -19 -1 -23 1 -4 -6 -10 -14 -13 -22 -9 -45 -57
-36 -73 6 -9 10 -5 15 13 4 15 11 24 15 21 11 -6 35 60 28 78 -4 8 -6 7 -7 -3z"/>
<path d="M1755 4940 c-3 -5 -3 -21 1 -35 5 -20 9 -24 18 -15 8 8 7 13 -2 19
-7 4 -10 15 -6 24 7 18 -1 23 -11 7z"/>
<path d="M1121 4883 c-1 -18 4 -33 9 -33 12 0 12 17 0 45 -7 17 -9 15 -9 -12z"/>
<path d="M1778 4875 c-4 -8 -4 -37 1 -64 1 -3 5 -1 11 5 5 5 6 22 2 39 -5 16
-11 25 -14 20z"/>
<path d="M741 4844 c0 -11 3 -14 6 -6 3 7 2 16 -1 19 -3 4 -6 -2 -5 -13z"/>
<path d="M1130 4815 c7 -9 15 -13 17 -11 7 7 -7 26 -19 26 -6 0 -6 -6 2 -15z"/>
<path d="M1793 4795 c-3 -9 -3 -18 -1 -21 3 -3 8 4 11 16 6 23 -1 27 -10 5z"/>
<path d="M1141 4754 c0 -11 3 -14 6 -6 3 7 2 16 -1 19 -3 4 -6 -2 -5 -13z"/>
<path d="M1171 4573 c2 -44 14 -80 22 -66 8 12 -9 93 -18 93 -3 0 -5 -12 -4
-27z"/>
<path d="M8491 4134 c0 -11 3 -14 6 -6 3 7 2 16 -1 19 -3 4 -6 -2 -5 -13z"/>
<path d="M8468 4109 c2 -16 7 -31 11 -34 4 -2 5 9 3 26 -2 16 -7 31 -11 34 -4
2 -5 -9 -3 -26z"/>
<path d="M8361 3874 c0 -11 3 -14 6 -6 3 7 2 16 -1 19 -3 4 -6 -2 -5 -13z"/>
<path d="M7675 3359 c-4 -6 -5 -12 -2 -15 2 -3 7 2 10 11 7 17 1 20 -8 4z"/>
<path d="M9370 3010 c-9 -6 -10 -10 -3 -10 6 0 15 5 18 10 8 12 4 12 -15 0z"/>
<path d="M9342 2974 c-7 -8 -8 -14 -3 -14 10 0 25 19 20 25 -2 1 -10 -3 -17
-11z"/>
<path d="M9235 2930 c-3 -5 -2 -10 4 -10 5 0 13 5 16 10 3 6 2 10 -4 10 -5 0
-13 -4 -16 -10z"/>
<path d="M9197 2913 c-4 -3 -7 -11 -7 -17 0 -6 5 -5 12 2 6 6 9 14 7 17 -3 3
-9 2 -12 -2z"/>
<path d="M9154 2875 c-4 -8 -14 -15 -24 -15 -27 0 -34 -18 -9 -25 22 -7 73 30
63 46 -8 14 -24 10 -30 -6z"/>
<path d="M9058 2824 c-16 -8 -29 -19 -29 -24 -1 -6 -3 -14 -4 -20 -1 -5 -3
-14 -4 -20 0 -5 -7 -10 -15 -10 -8 0 -18 -6 -22 -12 -4 -7 -4 -10 1 -6 4 4 14
3 22 -4 18 -15 24 -7 30 41 4 31 10 41 24 41 10 0 21 5 24 11 11 17 2 18 -27
3z"/>
<path d="M9180 2830 c0 -5 5 -10 10 -10 6 0 10 5 10 10 0 6 -4 10 -10 10 -5 0
-10 -4 -10 -10z"/>
<path d="M9200 2789 c0 -5 5 -7 10 -4 6 3 10 8 10 11 0 2 -4 4 -10 4 -5 0 -10
-5 -10 -11z"/>
<path d="M9280 2779 c0 -5 5 -7 10 -4 6 3 10 8 10 11 0 2 -4 4 -10 4 -5 0 -10
-5 -10 -11z"/>
<path d="M8965 2766 c-18 -13 -18 -14 8 -9 15 3 27 9 27 14 0 13 -13 11 -35
-5z"/>
<path d="M8916 2734 c-11 -8 -16 -14 -10 -14 13 0 39 18 34 24 -3 2 -14 -2
-24 -10z"/>
<path d="M8842 2693 l-33 -16 20 -21 c11 -11 24 -16 28 -12 5 5 2 11 -4 13 -7
3 -13 9 -13 14 0 14 28 11 33 -3 3 -7 6 -1 6 15 1 15 0 27 -1 27 -2 0 -18 -8
-36 -17z"/>
<path d="M9146 2702 c-5 -8 91 -8 99 -1 2 3 -18 6 -45 7 -27 1 -51 -2 -54 -6z"/>
<path d="M9155 2669 c-11 -17 1 -21 15 -4 8 9 8 15 2 15 -6 0 -14 -5 -17 -11z"/>
<path d="M8773 2653 c-7 -2 -13 -11 -13 -19 0 -8 -4 -14 -10 -14 -5 0 -10 -4
-10 -10 0 -17 28 1 33 22 4 15 11 18 29 13 18 -5 20 -4 8 4 -16 12 -19 12 -37
4z"/>
<path d="M8631 2534 c0 -11 3 -14 6 -6 3 7 2 16 -1 19 -3 4 -6 -2 -5 -13z"/>
<path d="M8514 2495 c-18 -14 -18 -14 4 -8 12 3 22 9 22 14 0 12 -3 11 -26 -6z"/>
<path d="M8595 2490 c3 -5 13 -10 21 -10 8 0 12 5 9 10 -3 6 -13 10 -21 10 -8
0 -12 -4 -9 -10z"/>
<path d="M8440 2410 c0 -5 5 -10 10 -10 6 0 10 5 10 10 0 6 -4 10 -10 10 -5 0
-10 -4 -10 -10z"/>
<path d="M8398 2403 c7 -3 16 -2 19 1 4 3 -2 6 -13 5 -11 0 -14 -3 -6 -6z"/>
<path d="M8498 2303 c7 -3 16 -2 19 1 4 3 -2 6 -13 5 -11 0 -14 -3 -6 -6z"/>
<path d="M8135 2250 c-3 -5 -1 -10 4 -10 6 0 11 5 11 10 0 6 -2 10 -4 10 -3 0
-8 -4 -11 -10z"/>
<path d="M8350 2200 c-8 -5 -10 -10 -5 -10 6 0 17 5 25 10 8 5 11 10 5 10 -5
0 -17 -5 -25 -10z"/>
<path d="M7285 1650 c-3 -5 -2 -10 4 -10 5 0 13 5 16 10 3 6 2 10 -4 10 -5 0
-13 -4 -16 -10z"/>
<path d="M7220 1620 c0 -5 5 -10 10 -10 6 0 10 5 10 10 0 6 -4 10 -10 10 -5 0
-10 -4 -10 -10z"/>
<path d="M9023 2056 c-23 -11 -31 -26 -14 -26 10 0 41 28 41 36 0 2 -1 3 -2 3
-2 -1 -13 -6 -25 -13z"/>
<path d="M8972 2011 c2 -7 7 -12 11 -12 12 1 9 15 -3 20 -7 2 -11 -2 -8 -8z"/>
<path d="M8745 1869 c-11 -17 1 -21 15 -4 8 9 8 15 2 15 -6 0 -14 -5 -17 -11z"/>
<path d="M8652 1805 c-7 -8 -9 -15 -4 -15 5 0 15 7 22 15 16 19 -1 19 -18 0z"/>
<path d="M1470 1390 c0 -5 5 -10 10 -10 6 0 10 5 10 10 0 6 -4 10 -10 10 -5 0
-10 -4 -10 -10z"/>
<path d="M10195 3110 c-10 -11 -16 -23 -13 -26 7 -6 38 24 38 37 0 13 -5 11
-25 -11z"/>
<path d="M10025 2850 c-3 -5 -2 -10 4 -10 5 0 13 5 16 10 3 6 2 10 -4 10 -5 0
-13 -4 -16 -10z"/>
<path d="M9795 2700 c-10 -11 -24 -20 -30 -20 -7 0 -18 -7 -25 -15 -9 -10 -9
-15 -1 -15 6 0 11 5 11 10 0 6 3 9 8 8 12 -3 72 32 72 42 0 16 -16 11 -35 -10z"/>
<path d="M10042 2704 c10 -10 20 -15 24 -12 3 4 -5 12 -18 18 -22 12 -22 12
-6 -6z"/>
<path d="M10010 2691 c0 -5 7 -12 16 -15 24 -9 27 -7 10 9 -17 17 -26 19 -26
6z"/>
<path d="M9934 2608 l-19 -21 28 18 c28 18 33 25 19 25 -5 0 -17 -10 -28 -22z"/>
<path d="M9790 2550 c-13 -8 -13 -10 2 -10 9 0 20 5 23 10 8 13 -5 13 -25 0z"/>
<path d="M9630 2418 c0 -19 2 -20 13 -6 6 9 19 18 27 21 8 3 3 6 -12 6 -22 1
-28 -3 -28 -21z"/>
<path d="M9360 2290 c0 -5 5 -10 11 -10 5 0 7 5 4 10 -3 6 -8 10 -11 10 -2 0
-4 -4 -4 -10z"/>
<path d="M9385 2271 c-6 -11 9 -23 19 -14 9 9 7 23 -3 23 -6 0 -12 -4 -16 -9z"/>
<path d="M9361 2244 c0 -11 3 -14 6 -6 3 7 2 16 -1 19 -3 4 -6 -2 -5 -13z"/>
<path d="M4081 1504 c-194 -52 -339 -191 -372 -357 -13 -65 -3 -61 -194 -72
-151 -9 -440 -44 -530 -65 -44 -10 -94 -16 -112 -13 -107 17 -198 -98 -145
-183 45 -71 168 -99 405 -92 141 5 178 9 282 37 137 36 296 98 368 142 l48 30
77 -35 c102 -45 131 -53 237 -67 473 -61 754 262 470 543 -120 119 -361 179
-534 132z m328 -63 c82 -28 167 -85 208 -139 115 -151 62 -315 -127 -386 -62
-24 -95 -30 -193 -34 -136 -5 -209 6 -319 50 -43 16 -78 32 -78 34 0 1 14 16
32 33 24 23 36 27 49 20 42 -22 189 -49 271 -49 176 0 288 72 288 184 0 76
-57 147 -152 191 -72 33 -149 41 -230 25 -86 -16 -159 -57 -258 -144 -46 -41
-97 -82 -113 -91 l-30 -18 7 39 c25 135 149 252 316 299 79 22 245 15 329 -14z
m-39 -152 c27 -12 64 -37 80 -56 25 -28 30 -42 30 -84 0 -70 -33 -101 -136
-125 -65 -15 -87 -16 -164 -7 -56 7 -104 20 -134 36 l-45 24 27 25 c15 14 53
44 85 68 32 24 56 48 54 54 -6 17 -37 19 -66 4 -25 -13 -34 -20 -83 -63 -173
-153 -222 -191 -292 -230 -106 -57 -291 -118 -426 -140 -216 -34 -444 -15
-512 43 -36 31 -15 90 37 106 11 3 61 -6 110 -20 124 -34 272 -42 392 -20 260
48 421 121 630 287 91 72 155 110 202 120 57 12 156 2 211 -22z m-875 -278
c-26 -25 -184 -54 -320 -58 -180 -5 -162 11 43 37 227 30 291 35 277 21z"/>
</g>
</svg>
